<?xml version="1.0" encoding="utf-8"?>
<!-- Generator: Adobe Illustrator 21.0.2, SVG Export Plug-In . SVG Version: 6.00 Build 0)  -->
<svg version="1.1" id="Слой_1" xmlns="http://www.w3.org/2000/svg" xmlns:xlink="http://www.w3.org/1999/xlink" x="0px" y="0px"
	 viewBox="0 0 1000 1000" style="enable-background:new 0 0 1000 1000;" xml:space="preserve">
<style type="text/css">
	.st0{fill:none;}
</style>
<rect x="1.7" y="1.1" class="st0" width="1000" height="1000"/>
<g>
	<path d="M683.3,651.3c-0.6-0.6-1.2-1.1-1.8-1.6L353,321.2c-0.5-0.6-1-1.2-1.6-1.8c-8.7-8.7-22.7-8.7-31.3,0
		c-8.7,8.7-8.7,22.7,0,31.3c0.6,0.6,1.2,1.1,1.8,1.6l328.5,328.5c0.5,0.6,1,1.2,1.6,1.8c8.7,8.7,22.7,8.7,31.3,0
		C691.9,674,691.9,660,683.3,651.3z"/>
	<path d="M651.9,319.5c-0.6,0.6-1.1,1.2-1.6,1.8L321.8,649.8c-0.6,0.5-1.2,1-1.8,1.6c-8.7,8.7-8.7,22.7,0,31.3
		c8.7,8.7,22.7,8.7,31.3,0c0.6-0.6,1.1-1.2,1.6-1.8l328.5-328.5c0.6-0.5,1.2-1,1.8-1.6c8.7-8.7,8.7-22.7,0-31.3
		C674.6,310.8,660.6,310.8,651.9,319.5z"/>
</g>
</svg>
