<?xml version="1.0" encoding="utf-8"?>
<!-- Generator: Adobe Illustrator 21.0.2, SVG Export Plug-In . SVG Version: 6.00 Build 0)  -->
<svg version="1.1" id="Слой_1" xmlns="http://www.w3.org/2000/svg" xmlns:xlink="http://www.w3.org/1999/xlink" x="0px" y="0px"
	 viewBox="0 0 1000 1000" style="enable-background:new 0 0 1000 1000;" xml:space="preserve">
<style type="text/css">
	.st0{fill:none;}
	.st1{fill-rule:evenodd;clip-rule:evenodd;}
</style>
<rect x="0.7" y="1.1" class="st0" width="1000" height="1000"/>
<path class="st1" d="M716,499.9c0-122-99-221-221-221c-122,0-221,99-221,221c0,122,99,221,221,221C617,720.9,716,621.9,716,499.9
	L716,499.9z M294.1,499.9C294.1,388.9,384.1,299,495,299s200.9,89.9,200.9,200.9S605.9,700.7,495,700.7S294.1,610.8,294.1,499.9
	L294.1,499.9z M294.1,499.9"/>
<path class="st1" d="M503.2,628.1V501h41.9l6.7-42.1h-48.6v-21.1c0-11,3.6-21.5,19.3-21.5h31.6v-42h-44.8
	c-37.6,0-47.9,24.8-47.9,59.2v25.5h-25.8V501h25.8v127.1H503.2z M503.2,628.1"/>
</svg>
