<?xml version="1.0" encoding="utf-8"?>
<!-- Generator: Adobe Illustrator 21.0.2, SVG Export Plug-In . SVG Version: 6.00 Build 0)  -->
<svg version="1.1" id="Слой_1" xmlns="http://www.w3.org/2000/svg" xmlns:xlink="http://www.w3.org/1999/xlink" x="0px" y="0px"
	 viewBox="0 0 1000 1000" style="enable-background:new 0 0 1000 1000;" xml:space="preserve">
<style type="text/css">
	.st0{fill:none;}
	.st1{fill-rule:evenodd;clip-rule:evenodd;}
</style>
<rect x="0.7" y="1.1" class="st0" width="1000" height="1000"/>
<path class="st1" d="M716.8,500.3c0-122-99-221-221-221c-122,0-221,99-221,221c0,122,99,221,221,221
	C617.8,721.3,716.8,622.3,716.8,500.3L716.8,500.3z M294.9,500.3c0-110.9,89.9-200.9,200.9-200.9s200.9,89.9,200.9,200.9
	s-89.9,200.9-200.9,200.9S294.9,611.3,294.9,500.3L294.9,500.3z M294.9,500.3"/>
<g>
	<path d="M448.6,580.3L448.6,580.3L448.6,580.3L448.6,580.3z M542.9,413.2L542.9,413.2L542.9,413.2L542.9,413.2z"/>
	<g>
		<path d="M495.7,559.2c32.5,0,58.9-26.4,58.9-58.8c0-32.5-26.4-58.9-58.9-58.9c-32.5,0-58.9,26.4-58.9,58.9
			C436.9,532.8,463.3,559.2,495.7,559.2z M451.2,500.3c0-24.6,20-44.6,44.6-44.6c24.6,0,44.6,20,44.6,44.6c0,24.6-20,44.6-44.6,44.6
			C471.2,544.9,451.2,524.9,451.2,500.3z"/>
	</g>
	<path d="M554.4,598.1H437.1c-22,0-40-17.9-40-40V442.5c0-22,17.9-40,40-40h117.4c22,0,40,17.9,40,40v115.6
		C594.4,580.2,576.5,598.1,554.4,598.1z M437.1,417.1c-14,0-25.4,11.4-25.4,25.4v115.6c0,14,11.4,25.4,25.4,25.4h117.4
		c14,0,25.4-11.4,25.4-25.4V442.5c0-14-11.4-25.4-25.4-25.4H437.1z"/>
</g>
</svg>
