<?xml version="1.0" encoding="utf-8"?>
<!-- Generator: Adobe Illustrator 21.0.2, SVG Export Plug-In . SVG Version: 6.00 Build 0)  -->
<svg version="1.1" id="Слой_1" xmlns="http://www.w3.org/2000/svg" xmlns:xlink="http://www.w3.org/1999/xlink" x="0px" y="0px"
	 viewBox="0 0 1000 1000" style="enable-background:new 0 0 1000 1000;" xml:space="preserve">
<style type="text/css">
	.st0{fill-rule:evenodd;clip-rule:evenodd;}
	.st1{fill:none;}
</style>
<g>
	<path class="st0" d="M308.6,501.6H347l9.2,18.3h46.4l-70.5-123.6h-23.5V428l22.5,44.4h-22.5V501.6z M214.7,519.9h46.5l9.4-18.3h38
		v-29.2h-22.5l22.4-44.5l0,0.1v-31.7h-23.2C261.9,437.6,238.2,478.7,214.7,519.9z"/>
	<polygon class="st0" points="417.9,396.4 468.3,396.4 546.7,470.9 546.7,396.3 587,396.3 587,519.9 545,519.9 458.4,438.2 
		458.4,519.9 417.9,519.9 	"/>
	<path class="st0" d="M692.5,396.4c6.9,0.1,13.8,0.3,20.7,1.1c10.9,1.3,21.8,3.9,31.7,9c6.4,3.3,11.9,7.4,16.4,12.3
		c9.1,9.8,13.9,23.2,14.5,36.9v5.6c-0.4,9.6-2.9,19-7.6,27c-9,15.5-26.6,27.4-54.7,30.4c-6.4,0.7-14.2,1-21,1.1V488
		c2.2,0,5.3-0.1,8.6-0.4c6.2-0.5,12.6-1.5,18.2-4.3h0c0.5-0.2,0.8-0.4,1.1-0.6c8.8-5,14.5-14.4,14.5-24.6c0-6.6-2.3-12.6-6.1-17.4
		c-2.6-3.3-5.9-5.9-9.5-7.8c-2.9-1.5-6.2-2.5-9.5-3.1c-6-1.2-13.3-1.6-17.5-1.6V396.4z M685.8,519.9h-76.5V396.5h61.8
		c7.2,0,14.3-0.2,21.4-0.1v31.8c-0.3,0-0.6,0-0.8,0h-41.7V488h21.8l20,0c0.3,0,0.5,0,0.8,0v31.9
		C690.1,519.9,687.8,519.9,685.8,519.9z"/>
	<rect x="796.4" y="396.5" class="st0" width="40.2" height="123.4"/>
	<polygon class="st0" points="858.7,471.1 858.7,445.3 892.9,445.3 892.9,411.1 918.7,411.1 918.7,445.3 952.9,445.3 952.9,471.1 
		918.7,471.1 918.7,505.3 892.9,505.3 892.9,471.1 	"/>
	<path class="st0" d="M209,433.8c0.4-3.3,3.3-38.2-63.4-40c-28.7-0.8-61.5-0.7-79.5,11.6c-10.4,7.1-16.4,15.9-17,27.5
		c-0.6,12.1,5,24.5,18.2,32.8c8.1,5.1,18.4,7.5,28.8,7.7l18.9,0.4c8.5,0.1,16.9,0.1,25.4,0.2c4.7,0.1,9.4,0.1,14,0.2
		c2.5,0.1,4.9,0.3,7.3,0.8c4,0.9,8.1,3.6,8,8.1c0,2.1-0.8,3.6-2.1,4.9c-3.9,3.8-10.8,4.3-15.9,4.6c-7.1,0.4-14.3,0.4-21.5,0.4
		c-4.9,0-9.7,0-14.6-0.1c-2.4-0.1-4.7-0.2-7.1-0.4c-3.4-0.3-6.8-0.9-10.1-2c-2.9-1-5.5-2.5-7.3-4.6c-0.8-1-1.4-2.1-1.4-3.4
		c0-0.8,0-0.2,0-0.3H48.7c-0.3,2-1.1,15.9,13.1,26.6c11.2,8.5,33.4,14.7,69.4,13.9c31.5-0.7,51.1-3.9,64.9-13.3
		c22.4-15.3,20.4-44.6-1.7-58.5c-1.5-0.9-3-1.7-4.8-2.4c-3.2-1.3-6.5-2.3-9.9-3.1c-4.4-1-9-1.6-13.5-2.1c-7.1-0.7-14.4-0.9-21.5-1.1
		c-8-0.2-16-0.1-24-0.1c-5.6,0-11.1,0.1-16.7-0.4c-3.3-0.3-7.3-1-10.1-2.9c-2-1.4-3.6-3.2-3.6-6.3c0-3.1,1.8-5.2,4.3-6.6
		c1.2-0.6,2.4-1.1,3.7-1.5c2.9-0.8,6-1.1,8.9-1.2c3.6-0.2,7.1-0.2,10.7-0.2c8.8,0,17.6,0,26.4,0.2c1.9,0,3.9,0.1,5.8,0.3
		c2,0.1,3.9,0.4,5.9,0.8c3.3,0.7,6.9,1.9,9.4,4.3c1.5,1.5,2.5,3.3,2.7,5.5H209z"/>
	<g>
		<path d="M446.1,560.6c-0.3-0.6-0.8-1.1-1.4-1.8c-0.6-0.6-1.3-1.2-2.2-1.8c-0.9-0.6-2-1.1-3.3-1.4c-0.6-0.2-1.3-0.3-2-0.4v10.2
			c0.3,0,0.6,0,0.9,0c1,0,1.8,0.1,2.6,0.4c0.8,0.3,1.5,0.7,2.2,1.5c0.8,0.7,1.3,1.5,1.6,2.4c0.3,0.8,0.4,1.8,0.4,2.9
			c0,0.5,0,1.1-0.1,1.8c-0.1,0.8-0.3,1.6-0.6,2.4c-0.3,0.9-0.9,1.7-1.6,2.4c-0.4,0.4-0.8,0.8-1.4,1.2c-0.6,0.4-1.2,0.7-2,0.9
			c-0.6,0.2-1.3,0.3-2,0.3v9.3c0.8-0.3,1.6-0.6,2.4-1.1c1.1-0.6,2.1-1.4,3.1-2.4l-0.4,3.5c-0.1,0.8-0.2,1.6-0.5,2.5
			c-0.2,0.9-0.6,1.8-1.2,2.7c-0.6,0.9-1.4,1.6-2.4,2.1c-0.3,0.2-0.7,0.3-1.1,0.4v9.4l0,0c1.5-0.2,3-0.5,4.6-1.1
			c1.6-0.6,3.1-1.3,4.7-2.4c0.8-0.5,1.6-1.2,2.4-2c0.8-0.8,1.7-1.8,2.4-2.9c0.8-1.1,1.4-2.4,2-3.9c0.6-1.5,1-3.1,1.2-4.9l4.2-34.5
			h-12.3L446.1,560.6z M437.3,555.1c-0.8-0.1-1.6-0.2-2.5-0.2c-1.9,0-3.7,0.2-5.3,0.7c-1.6,0.5-3,1-4.2,1.8
			c-1.2,0.7-2.2,1.5-3.1,2.3c-1.2,1.1-2.2,2.4-3.1,4c-0.9,1.6-1.6,3.4-2.1,5.3c-0.5,2-0.8,4.1-0.8,6.4c0,1.9,0.2,3.6,0.6,5.1
			c0.4,1.5,0.9,2.8,1.5,3.9c0.6,1.1,1.3,2.1,2.1,2.9c1.3,1.5,2.8,2.5,4.5,3.2c1.7,0.7,3.7,1,6,1c0.7,0,1.5,0,2.4-0.1
			c0.9-0.1,1.9-0.3,3-0.6c0.3-0.1,0.6-0.2,0.9-0.3v-9.3c-0.2,0-0.3,0-0.5,0c-0.9,0-1.7-0.1-2.3-0.3c-0.7-0.2-1.2-0.4-1.7-0.7
			c-0.5-0.3-0.9-0.6-1.2-0.9c-0.8-0.7-1.3-1.6-1.6-2.4c-0.3-0.9-0.5-1.8-0.5-2.8c0-1.4,0.2-2.7,0.6-3.8c0.4-1.1,1-2.1,1.7-2.8
			c0.4-0.4,0.8-0.8,1.4-1.1c0.6-0.4,1.3-0.7,2.1-0.9c0.6-0.2,1.2-0.3,1.9-0.3V555.1L437.3,555.1z M437.3,598.5
			c-0.9,0.3-1.9,0.4-3.1,0.4c-0.7,0-1.5-0.1-2.2-0.3c-0.7-0.2-1.4-0.7-2-1.3c-0.4-0.5-0.7-0.9-0.8-1.4c-0.1-0.5-0.2-0.9-0.1-1.3
			h-13.9c0,1.3,0.2,2.5,0.5,3.5c0.3,1,0.7,2,1.2,2.8c0.5,0.8,1,1.5,1.5,2.1c0.5,0.6,1,1,1.4,1.4c1.1,0.9,2.2,1.6,3.4,2.1
			c1.2,0.5,2.4,0.9,3.6,1.1c1.2,0.2,2.3,0.4,3.4,0.5c1.1,0.1,2.1,0.1,2.9,0.1c1.3,0,2.7-0.1,4.2-0.3V598.5z"/>
		<path d="M488.7,581c-0.3,0.7-0.6,1.3-0.9,1.7c-0.4,0.5-0.7,0.8-1.1,1.1c-0.7,0.5-1.4,0.9-2.3,1.2c-0.4,0.1-0.8,0.2-1.2,0.3v7.8
			c0.7,0,1.4-0.1,2.2-0.2c1.5-0.2,3.1-0.6,4.8-1.2c1.6-0.6,3.2-1.5,4.8-2.7c1.3-1,2.4-2.1,3.4-3.4c1-1.3,1.9-2.8,2.7-4.4H488.7
			L488.7,581z M483.2,576.9h18.7c0.1-0.7,0.1-1.3,0.2-2c0-0.7,0.1-1.4,0.1-2c0-1.2-0.1-2.4-0.2-3.7c-0.1-1.3-0.4-2.6-0.9-3.9
			c-0.4-1.3-1.1-2.6-1.9-3.8c-1-1.4-2.1-2.5-3.4-3.4c-1.2-0.9-2.5-1.5-3.8-2c-1.3-0.5-2.6-0.7-3.9-0.9c-1.3-0.1-2.5-0.2-3.6-0.2
			c-0.4,0-0.8,0-1.2,0v7.7c0.2,0,0.4,0,0.6,0c0.5,0,1.1,0,1.7,0.1c0.6,0.1,1.2,0.3,1.9,0.7c0.6,0.3,1.2,0.9,1.7,1.6
			c0.5,0.7,0.8,1.4,1.1,2.3c0.2,0.9,0.3,1.7,0.3,2.5h-7.2V576.9z M483.2,585.3c-0.5,0.1-1,0.1-1.5,0.1c-1,0-2-0.2-2.9-0.5
			c-0.9-0.3-1.7-0.8-2.3-1.5c-0.3-0.3-0.6-0.7-0.9-1.1c-0.3-0.5-0.5-1-0.7-1.7c-0.2-0.7-0.3-1.4-0.3-2.3c0-0.2,0-0.5,0-0.7
			c0-0.2,0-0.5,0.1-0.7h8.5v-7H476c0.1-0.9,0.4-1.7,0.8-2.6c0.4-0.9,0.9-1.6,1.5-2.3c0.6-0.6,1.2-1.1,1.8-1.5
			c0.6-0.3,1.3-0.6,1.9-0.7c0.4-0.1,0.8-0.1,1.2-0.2V555c-0.6,0-1.3,0.1-2,0.1c-1.2,0.1-2.5,0.4-3.8,0.7c-1.3,0.4-2.7,0.9-4,1.6
			c-1.3,0.7-2.7,1.7-3.9,2.8c-0.6,0.6-1.3,1.3-2,2.2c-0.7,0.9-1.4,2-2.1,3.3c-0.6,1.3-1.2,2.8-1.6,4.6c-0.4,1.7-0.6,3.7-0.6,5.9
			c0,2.3,0.3,4.4,1,6.4c0.7,2,1.8,3.9,3.4,5.5c1.4,1.4,2.9,2.4,4.4,3.1c1.6,0.7,3.1,1.2,4.7,1.4c1.6,0.2,3,0.4,4.4,0.3
			c0.7,0,1.4,0,2.1-0.1V585.3z"/>
		<polygon points="507.3,591.8 520.2,591.8 523.4,565.5 530.6,565.5 531.7,556.3 524.5,556.3 525.8,546.5 512.9,546.5 511.7,556.3 
			507,556.3 505.9,565.5 510.6,565.5 		"/>
		<path d="M570.9,593c0.7,0.1,1.4,0.1,2,0.1c1.7,0,3.3-0.2,4.9-0.6c1.6-0.4,3-1,4.4-1.7c1.3-0.7,2.5-1.6,3.6-2.5
			c1.2-1.1,2.3-2.5,3.2-4c0.9-1.6,1.7-3.4,2.2-5.4c0.5-2.1,0.8-4.4,0.8-7c0-1.2-0.1-2.6-0.3-4c-0.2-1.4-0.6-2.8-1.1-4.3
			c-0.6-1.4-1.4-2.8-2.4-4c-0.8-0.9-1.7-1.7-2.7-2.4c-1-0.7-2.2-1.2-3.6-1.6c-1.4-0.4-2.9-0.6-4.6-0.6c-1.8,0-3.4,0.2-4.8,0.6
			c-0.6,0.2-1.1,0.3-1.6,0.5v9.5c0.3,0,0.6,0,0.9,0c0.9,0,1.8,0.1,2.6,0.4c0.8,0.3,1.6,0.8,2.3,1.5c0.7,0.8,1.2,1.6,1.5,2.5
			c0.3,0.9,0.4,1.9,0.4,3.1c0,1.6-0.2,2.9-0.7,4.1c-0.4,1.1-1,2.1-1.7,2.8c-0.6,0.7-1.3,1.2-2,1.6c-0.7,0.4-1.4,0.6-2.1,0.8
			c-0.4,0.1-0.8,0.1-1.2,0.2V593z M553.5,556.3l-6.2,50.9h12.9l2.4-19.8c0.7,1.2,1.5,2.2,2.4,2.9c0.9,0.7,1.8,1.3,2.8,1.7
			c1,0.4,1.9,0.7,2.8,0.8c0.2,0,0.3,0,0.5,0.1v-10.5c-0.3,0-0.5,0-0.8,0c-0.9,0-1.7-0.1-2.6-0.4c-0.9-0.3-1.7-0.8-2.4-1.5
			c-0.5-0.6-0.9-1.2-1.2-1.8c-0.3-0.6-0.5-1.3-0.6-1.9c-0.1-0.6-0.1-1.3-0.1-1.9c0-1.3,0.2-2.6,0.6-3.8c0.4-1.2,1-2.2,1.8-3.1
			c0.7-0.7,1.4-1.3,2.1-1.7c0.7-0.4,1.5-0.6,2.2-0.7c0.4-0.1,0.7-0.1,1.1-0.1v-9.5c-0.7,0.3-1.4,0.6-1.9,0.9c-1,0.6-1.8,1.1-2.3,1.7
			c-0.6,0.5-1,1-1.2,1.3l0.4-3.7H553.5z"/>
		<polygon points="596,591.8 608.9,591.8 615.5,537.8 602.6,537.8 		"/>
		<path d="M620.9,556.3l-2.4,19.1c-0.1,0.5-0.1,0.9-0.1,1.4c0,0.5,0,0.9,0,1.4c0,1.5,0.1,3,0.5,4.6c0.3,1.5,1,3,1.9,4.4
			c0.9,1.4,2.2,2.6,4,3.6c0.9,0.5,1.8,1,2.8,1.3c1,0.3,1.9,0.6,2.9,0.7c0.9,0.2,1.8,0.3,2.6,0.3c0.8,0.1,1.4,0.1,2,0.1
			c2.7,0,5-0.3,7.1-0.9c2.1-0.6,3.9-1.4,5.4-2.4c1.5-1,2.8-2,3.8-3.2c1.1-1.2,1.9-2.5,2.5-3.8c0.6-1.3,1-2.5,1.3-3.8
			c0.3-1.2,0.5-2.5,0.6-3.6l2.4-19.1h-12.9l-2.4,19.4c-0.2,1.3-0.4,2.3-0.6,3c-0.3,0.7-0.6,1.2-0.8,1.6c-0.5,0.6-1.1,1.1-2,1.5
			c-0.9,0.4-1.9,0.6-3.1,0.7c-0.5,0-0.9-0.1-1.5-0.2c-0.5-0.1-1.1-0.3-1.6-0.6c-0.7-0.5-1.2-1.1-1.5-1.8c-0.2-0.7-0.4-1.3-0.3-2
			c0-0.4,0-0.7,0.1-1.1c0-0.4,0.1-0.7,0.1-1.1l2.4-19.4H620.9z"/>
		<path d="M659,589.4c0.8,0.6,1.7,1,2.6,1.4c0.9,0.4,1.7,0.7,2.5,1c0.9,0.3,1.8,0.5,2.8,0.7c1,0.2,2.1,0.4,3.1,0.5
			c1.1,0.1,2.1,0.2,3,0.2c1.4,0,2.7-0.1,4.1-0.3c1.4-0.2,2.7-0.5,4-1c1.3-0.4,2.5-1,3.5-1.7c0.9-0.6,1.8-1.4,2.6-2.4
			c0.8-1,1.5-2.2,2.1-3.6c0.5-1.4,0.8-3.2,0.8-5.2c0-0.9-0.1-1.9-0.4-3c-0.3-1.1-0.8-2.1-1.5-3c-0.8-0.9-1.9-1.7-3.5-2.4
			c-0.8-0.3-1.6-0.6-2.3-0.7c-0.7-0.1-1.4-0.2-2.1-0.3c-0.7-0.1-1.5-0.2-2.4-0.4c-0.4-0.1-0.8-0.2-1.2-0.4c-0.4-0.2-0.8-0.5-1.1-0.9
			c-0.3-0.4-0.5-0.9-0.5-1.6c0-0.6,0.1-1.1,0.5-1.5c0.3-0.5,0.8-0.8,1.4-1.1c0.6-0.3,1.4-0.4,2.4-0.4c0.8,0,1.6,0.1,2.3,0.3
			c0.8,0.2,1.5,0.4,2.2,0.7c0.6,0.2,1.1,0.5,1.7,0.8c0.6,0.3,1.1,0.7,1.7,1.1l5-8.2c-0.8-0.4-1.6-0.8-2.4-1.1
			c-0.9-0.3-1.8-0.6-2.9-0.9c-0.9-0.2-1.9-0.4-2.9-0.6c-1-0.2-2-0.3-3-0.4c-1-0.1-1.9-0.1-2.8-0.1c-1.8,0-3.4,0.2-4.8,0.5
			c-1.4,0.3-2.5,0.7-3.5,1.2c-1,0.5-1.7,0.9-2.4,1.4c-1.6,1.2-2.8,2.7-3.6,4.4c-0.8,1.7-1.2,3.8-1.2,6.2c0,0.6,0,1.3,0.1,2
			c0.1,0.7,0.3,1.5,0.6,2.2c0.3,0.8,0.8,1.5,1.5,2.2c0.7,0.7,1.5,1.3,2.4,1.7c0.9,0.4,1.9,0.8,2.9,1c1,0.3,2,0.4,3,0.6
			c0.5,0.1,1.1,0.2,1.7,0.3c0.6,0.2,1.1,0.4,1.5,0.8c0.4,0.4,0.6,0.9,0.6,1.6c0,0.3-0.1,0.7-0.3,1.1c-0.2,0.4-0.6,0.8-1.2,1.1
			c-0.6,0.3-1.4,0.5-2.5,0.5c-0.8,0-1.6-0.1-2.5-0.2c-0.9-0.2-1.9-0.5-2.9-0.9c-0.7-0.3-1.4-0.6-2.1-1c-0.7-0.4-1.4-0.8-2-1.2
			L659,589.4z"/>
		<polygon points="739.6,573.3 743.6,591.8 752.9,591.8 771.3,556.3 758.7,556.3 749.7,575.3 745.9,556.3 737.1,556.3 729.1,575.3 
			724.4,556.3 712.1,556.3 722.1,591.8 731.4,591.8 		"/>
		<path d="M774.7,556.3l-4.3,35.5h12.9l4.3-35.5H774.7L774.7,556.3z M783,539.2c-0.9,0-1.8,0.2-2.7,0.5c-0.9,0.3-1.7,0.8-2.3,1.4
			c-0.7,0.6-1.2,1.4-1.6,2.3c-0.4,0.9-0.6,1.9-0.6,3.1c0,1.3,0.3,2.4,0.8,3.3c0.5,0.9,1.2,1.7,2.2,2.2c0.9,0.5,2,0.8,3.2,0.8
			c0.9,0,1.9-0.2,2.7-0.5s1.7-0.8,2.4-1.4c0.7-0.6,1.2-1.4,1.6-2.3c0.4-0.9,0.6-1.9,0.6-3.1c0-1.3-0.3-2.4-0.8-3.3
			c-0.5-0.9-1.2-1.7-2.2-2.2C785.3,539.5,784.2,539.2,783,539.2z"/>
		<polygon points="792.6,591.8 805.5,591.8 808.7,565.5 815.9,565.5 817,556.3 809.8,556.3 811,546.5 798.2,546.5 796.9,556.3 
			792.3,556.3 791.2,565.5 795.8,565.5 		"/>
		<path d="M817.3,591.8h12.9l2.1-17.5c0.1-0.8,0.3-1.6,0.5-2.6c0.3-0.9,0.7-1.8,1.2-2.7c0.4-0.6,1-1.2,1.6-1.8
			c0.6-0.5,1.3-0.9,2-1.2c0.7-0.3,1.5-0.5,2.3-0.5c0.3,0,0.7,0,1.1,0.1c0.5,0.1,0.9,0.3,1.4,0.6c0.5,0.3,0.8,0.7,1.1,1.3
			c0.3,0.6,0.5,1.4,0.5,2.5c0,0.4,0,0.7,0,1.1c0,0.4-0.1,0.7-0.1,1.1l-2.4,19.5h12.9l2.6-20.7c0.1-0.7,0.1-1.5,0.2-2.2
			c0-0.7,0.1-1.4,0.1-2.2c0-0.9-0.1-1.9-0.2-3c-0.1-1-0.4-2.1-0.9-3.1c-0.4-1-1.1-2-1.9-2.8c-0.9-0.9-2-1.6-3.3-2.1
			c-1.3-0.5-2.9-0.8-4.7-0.8c-1.3,0-2.6,0.1-3.9,0.4c-1.2,0.3-2.4,0.7-3.6,1.3c-1.1,0.6-2,1.1-2.8,1.8c-0.8,0.6-1.4,1.3-2,1.9
			l2.8-22.6h-12.9L817.3,591.8z"/>
		<path d="M883,556.3l-2.4,19.1c-0.1,0.5-0.1,0.9-0.1,1.4c0,0.5,0,0.9,0,1.4c0,1.5,0.1,3,0.5,4.6c0.3,1.5,1,3,1.9,4.4
			c0.9,1.4,2.2,2.6,4,3.6c0.9,0.5,1.8,1,2.8,1.3c1,0.3,1.9,0.6,2.9,0.7c0.9,0.2,1.8,0.3,2.6,0.3c0.8,0.1,1.4,0.1,2,0.1
			c2.7,0,5-0.3,7.1-0.9c2.1-0.6,3.9-1.4,5.4-2.4c1.5-1,2.8-2,3.8-3.2c1.1-1.2,1.9-2.5,2.5-3.8c0.6-1.3,1-2.5,1.3-3.8
			c0.3-1.2,0.5-2.5,0.6-3.6l2.4-19.1h-12.9l-2.4,19.4c-0.2,1.3-0.4,2.3-0.6,3c-0.3,0.7-0.6,1.2-0.8,1.6c-0.5,0.6-1.1,1.1-2,1.5
			c-0.9,0.4-1.9,0.6-3.1,0.7c-0.5,0-0.9-0.1-1.5-0.2c-0.5-0.1-1.1-0.3-1.6-0.6c-0.7-0.5-1.2-1.1-1.5-1.8c-0.2-0.7-0.4-1.3-0.3-2
			c0-0.4,0-0.7,0-1.1c0-0.4,0.1-0.7,0.1-1.1l2.4-19.4H883z"/>
		<path d="M921.1,589.4c0.8,0.6,1.7,1,2.6,1.4c0.9,0.4,1.7,0.7,2.5,1c0.9,0.3,1.8,0.5,2.8,0.7c1,0.2,2.1,0.4,3.1,0.5
			c1.1,0.1,2.1,0.2,3,0.2c1.4,0,2.7-0.1,4.1-0.3c1.4-0.2,2.7-0.5,4-1c1.3-0.4,2.5-1,3.5-1.7c0.9-0.6,1.8-1.4,2.6-2.4
			c0.8-1,1.5-2.2,2.1-3.6c0.5-1.4,0.8-3.2,0.8-5.2c0-0.9-0.1-1.9-0.4-3c-0.3-1.1-0.8-2.1-1.5-3c-0.8-0.9-1.9-1.7-3.5-2.4
			c-0.8-0.3-1.6-0.6-2.3-0.7c-0.7-0.1-1.4-0.2-2.1-0.3c-0.7-0.1-1.5-0.2-2.4-0.4c-0.4-0.1-0.8-0.2-1.2-0.4c-0.4-0.2-0.8-0.5-1.1-0.9
			c-0.3-0.4-0.5-0.9-0.5-1.6c0-0.6,0.1-1.1,0.5-1.5c0.3-0.5,0.8-0.8,1.4-1.1c0.6-0.3,1.4-0.4,2.4-0.4c0.8,0,1.6,0.1,2.3,0.3
			c0.8,0.2,1.5,0.4,2.2,0.7c0.6,0.2,1.1,0.5,1.7,0.8c0.6,0.3,1.1,0.7,1.7,1.1l5-8.2c-0.8-0.4-1.6-0.8-2.4-1.1
			c-0.9-0.3-1.8-0.6-2.9-0.9c-0.9-0.2-1.9-0.4-2.9-0.6c-1-0.2-2-0.3-3-0.4c-1-0.1-1.9-0.1-2.8-0.1c-1.8,0-3.4,0.2-4.8,0.5
			c-1.4,0.3-2.5,0.7-3.5,1.2c-1,0.5-1.7,0.9-2.4,1.4c-1.6,1.2-2.8,2.7-3.6,4.4c-0.8,1.7-1.2,3.8-1.2,6.2c0,0.6,0,1.3,0.1,2
			c0.1,0.7,0.3,1.5,0.6,2.2c0.3,0.8,0.8,1.5,1.5,2.2c0.7,0.7,1.5,1.3,2.5,1.7c0.9,0.4,1.9,0.8,2.9,1c1,0.3,2,0.4,3,0.6
			c0.5,0.1,1.1,0.2,1.7,0.3c0.6,0.2,1.1,0.4,1.5,0.8c0.4,0.4,0.6,0.9,0.6,1.6c0,0.3-0.1,0.7-0.3,1.1c-0.2,0.4-0.6,0.8-1.2,1.1
			c-0.6,0.3-1.4,0.5-2.5,0.5c-0.8,0-1.6-0.1-2.5-0.2c-0.9-0.2-1.9-0.5-2.9-0.9c-0.7-0.3-1.4-0.6-2.1-1c-0.7-0.4-1.4-0.8-2-1.2
			L921.1,589.4z"/>
	</g>
</g>
<rect x="1.5" y="0.9" class="st1" width="1000" height="1000"/>
</svg>
