<?xml version="1.0" encoding="utf-8"?>
<!-- Generator: Adobe Illustrator 21.0.2, SVG Export Plug-In . SVG Version: 6.00 Build 0)  -->
<svg version="1.1" id="Слой_1" xmlns="http://www.w3.org/2000/svg" xmlns:xlink="http://www.w3.org/1999/xlink" x="0px" y="0px"
	 viewBox="0 0 1000 1000" style="enable-background:new 0 0 1000 1000;" xml:space="preserve">
<style type="text/css">
	.st0{fill:none;}
</style>
<rect x="0" y="0.2" class="st0" width="1000" height="1000"/>
<g>
	<path d="M730,478.5c-0.8,0-1.6,0-2.3,0.1H272.3c-0.8-0.1-1.5-0.1-2.3-0.1c-12,0-21.7,9.7-21.7,21.7c0,12,9.7,21.7,21.7,21.7
		c0.8,0,1.6,0,2.3-0.1h455.4c0.8,0.1,1.5,0.1,2.3,0.1c12,0,21.7-9.7,21.7-21.7C751.7,488.2,742,478.5,730,478.5z"/>
	<path d="M730,322.1c-0.8,0-1.6,0-2.3,0.1H272.3c-0.8-0.1-1.5-0.1-2.3-0.1c-12,0-21.7,9.7-21.7,21.7c0,12,9.7,21.7,21.7,21.7
		c0.8,0,1.6,0,2.3-0.1h455.4c0.8,0.1,1.5,0.1,2.3,0.1c12,0,21.7-9.7,21.7-21.7C751.7,331.8,742,322.1,730,322.1z"/>
	<path d="M730,634.9c-0.8,0-1.6,0-2.3,0.1H272.3c-0.8-0.1-1.5-0.1-2.3-0.1c-12,0-21.7,9.7-21.7,21.7c0,12,9.7,21.7,21.7,21.7
		c0.8,0,1.6,0,2.3-0.1h455.4c0.8,0.1,1.5,0.1,2.3,0.1c12,0,21.7-9.7,21.7-21.7C751.7,644.6,742,634.9,730,634.9z"/>
</g>
</svg>
