<?xml version="1.0" encoding="utf-8"?>
<!-- Generator: Adobe Illustrator 21.0.2, SVG Export Plug-In . SVG Version: 6.00 Build 0)  -->
<svg version="1.1" id="Слой_1" xmlns="http://www.w3.org/2000/svg" xmlns:xlink="http://www.w3.org/1999/xlink" x="0px" y="0px"
	 viewBox="0 0 1000 1000" style="enable-background:new 0 0 1000 1000;" xml:space="preserve">
<style type="text/css">
	.st0{fill:none;}
	.st1{fill-rule:evenodd;clip-rule:evenodd;}
</style>
<rect x="0.7" y="1.1" class="st0" width="1000" height="1000"/>
<path class="st1" d="M716.8,500.3c0-122-99-221-221-221c-122,0-221,99-221,221c0,122,99,221,221,221
	C617.8,721.3,716.8,622.3,716.8,500.3L716.8,500.3z M294.9,500.3c0-110.9,89.9-200.9,200.9-200.9s200.9,89.9,200.9,200.9
	s-89.9,200.9-200.9,200.9S294.9,611.3,294.9,500.3L294.9,500.3z M294.9,500.3"/>
<path d="M614.8,403.1c-4.1-4.3-10.9-5.7-18.7-3.9c-5.2,1.2-12.1,2.9-19,4.8c-26.5,7.2-52.9,14.3-79.4,21.5
	c-26.5,7.2-52.9,14.3-79.4,21.5c-8,2.2-16,4.3-24.1,6.4c-12.4,3.3-24.9,6.6-37.3,10.1c-4.3,1.2-14.3,4-14.8,14.5
	c-0.4,9,7,12,13.1,14.5l14.2,5.8c12.8,5.2,26,10.6,39.1,15.7c2.8,1.1,4.1,2.7,4.4,5.7c0.3,3.3,0.6,6.6,0.9,10
	c0.4,4.2,0.7,8.4,1.2,12.6c1.6,14,3.2,29.1,5.2,44.1c0.5,4.2,2.4,7.5,5.3,9.4c2.9,1.9,6.6,2.4,10.6,1.3c2.5-0.7,6.2-2,9.4-4.4
	c7.7-5.8,15.3-11.6,23.2-17.8l7.4-5.7l8.3,7.8c7.7,7.3,15.3,14.4,22.9,21.6c1.8,1.7,3.6,3.4,5.4,5.1c5.4,5.1,11,10.5,17,15.1
	c3.7,2.8,7.5,4.2,11.1,4.2c0.8,0,1.7-0.1,2.5-0.2c4.3-0.8,8-3.6,10.8-8c2.4-3.9,4.4-8.5,6.4-14.5c12.7-38.9,25.5-78.4,38.1-117.5
	l2.1-6.6c5.7-17.8,11.7-36.3,16.9-54.6C619.9,413.9,618.9,407.4,614.8,403.1z M430.6,571.3l-0.8,4.3c-0.3-2.4-0.5-4.9-0.8-7.3
	c-1.4-13.7-2.9-27.9-5-41.8c-1.1-7.4-0.2-11.1,7.7-14.9c21.3-10,42.5-20.9,63.1-31.4c5.3-2.7,10.7-5.5,16-8.2l-0.8,0.6
	c-11.8,9-23.6,17.9-35.5,27l-10.2,7.7c-7.8,5.9-15.6,11.8-23.3,17.8c-2.2,1.7-3,4.8-3.3,6.6C435.3,545.4,433.1,557.6,430.6,571.3z
	 M439.6,584.2l7.6-42.9l20.2,21.1L439.6,584.2z M352.7,477.5c0-0.1,0.1-0.3,0.3-0.4c0.1-0.1,0.2-0.2,0.3-0.3
	c0.1-0.1,0.1-0.1,0.2-0.2c0.1-0.1,0.3-0.2,0.4-0.3c0.1-0.1,0.1-0.1,0.2-0.1c0.1,0,0.5-0.2,0.5-0.3c1-0.5,2.1-0.8,4.7-1.6
	c0.5-0.2,2.8-0.8,4-1.1l0.7-0.2c12.3-3.5,23.3-6.4,35-9.5c7.4-1.9,14.9-3.9,22.8-6.1c26.6-7.2,53.2-14.5,79.8-21.8
	c23.4-6.4,46.7-12.8,70.1-19.1c9.3-2.5,17.7-4.7,25.8-6.6c4.5-1.1,7.6-0.9,9,0.6c1.7,1.7,1.2,5.4,0.5,8.2
	c-2.7,10.9-6.3,21.8-9.7,32.3c-0.9,2.9-1.9,5.8-2.8,8.7c-14.6,45.5-29.3,91-44.1,136.5c-1.4,4.2-3.2,8.4-5.3,12.3
	c-1.8,3.2-4.1,3.8-7.6,1.9c-2.1-1.1-3.9-2.4-5.4-3.8c-24.4-23.3-48.8-46.7-73.2-70.1l-6.2-6c-0.2-0.2-0.4-0.4-0.6-0.6
	c7.2-5.5,14.4-10.9,21.6-16.3c6.1-4.6,12.2-9.1,18.2-13.7c9.5-7.2,19-14.5,28.6-21.7c15-11.3,27.9-21.1,42.6-32.4l1.1-0.8
	c0.1,0,1.2-0.8,1.2-0.9c2.9-1.9,4-5.4,2.4-7.9c-1.5-2.4-4.8-2.9-7.7-1.4c-0.1,0-1,0.4-1,0.5l-1.3,0.6l-1.9,0.9
	c-12.8,6.3-22.4,11.3-35.4,17.9c-8.4,4.3-16.7,8.5-25,12.7l-6.8,3.4c-22.7,11.5-46.2,23.3-69.4,34.7c-1,0.5-3.1,0.4-4.7-0.3
	c-9.2-3.8-17-7-24.9-10.3c-7.2-3-14.6-6.1-23.8-9.8c-0.6-0.2-4.4-1.8-5.2-2.2c-2.1-1-3.5-1.6-5.5-2.5
	C353.1,479.4,352.3,478.7,352.7,477.5"/>
</svg>
