<?xml version="1.0" encoding="utf-8"?>
<!-- Generator: Adobe Illustrator 21.0.2, SVG Export Plug-In . SVG Version: 6.00 Build 0)  -->
<svg version="1.1" id="Слой_1" xmlns="http://www.w3.org/2000/svg" xmlns:xlink="http://www.w3.org/1999/xlink" x="0px" y="0px"
	 viewBox="0 0 1000 1000" style="enable-background:new 0 0 1000 1000;" xml:space="preserve">
<style type="text/css">
	.st0{fill:#FFFFFF;}
	.st1{fill:none;}
</style>
<path class="st0" d="M388.1,403.4c0,15.6,0,31.2,0,46.8c0,16-11,28.5-26.9,29.5c-16.2,1-30.2-10.2-30.5-27.2
	c-0.5-32.7-0.3-65.4-0.1-98.1c0.1-15.1,13.5-27.4,28.8-27.3c15.4,0.1,28.3,12.4,28.6,27.5C388.3,371,388.1,387.2,388.1,403.4
	C388.1,403.4,388.1,403.4,388.1,403.4z"/>
<path class="st0" d="M561.9,565.3c0.1-62.7,0-125.4,0-188c0-10-0.5-19.9-1.8-29.8c-7.2-51-30-93.9-69.4-127
	C438.5,176.7,378.2,162,312,177.8c-64.3,15.3-110.2,54.7-137.9,114.8c-12.2,26.5-17.4,54.6-17.4,83.8c0.1,41.3,0,82.6,0,123.9
	c0,41.4,0.1,82.8,0,124.2c0,16.1,1.7,31.9,5.3,47.5c9.2,40.1,28.8,74.6,59.2,102.4c45.4,41.7,99.1,59.4,160.3,53.2
	c43.9-4.4,82.3-22.1,114.7-52.1c40.4-37.4,62.2-83.8,65.2-138.7C562.8,613,561.8,589.1,561.9,565.3z M195.4,629.8v-4.1
	c0-0.2,0-4-0.1-4.1c0-1.4-0.1-11.2-0.1-12.5c0-80.4,0-152.3,0-232.6c0-34.7,9.2-66.6,29.1-95c27.6-39.1,65.1-63.4,112.7-69.3
	c64.1-7.9,116.1,14.9,155,66.2c21,27.7,31.2,59.8,31.3,94.6c0.2,85,0.2,170.1,0,255.1c-0.2,77-56.2,145.2-131.9,159
	c-66,12.1-120.7-9.1-162.6-61.6c-20.7-26-31.2-52.8-33-85.8l-0.3-3.4l-0.1-3.7"/>
<path class="st0" d="M837.8,360.3c-25.5-25.7-51.1-51.3-76.7-76.9c-6.3-6.4-16.3-6.2-22.6,0.3c-2.8,2.9-5.6,5.9-8.5,8.7
	c-22.9,23-45.9,45.9-68.8,68.9c-6,6-6.2,14.9-0.8,21.2c6.2,7.1,16.4,7,23.7-0.4c15.4-15.3,30.7-30.7,46.1-46.1c1-1,2.2-2,3.8-3.5
	c0,119.5,0,238.5,0,357.3c0,0,0,0,0,0c0,0,0,0,0,0c0,0,0,0,0,0h0c0,8.7,7.1,15.8,15.8,15.8c8.7,0,15.8-7.1,15.8-15.8h0
	c0-119.2,0-238.1,0-357.5c1.6,1.5,2.6,2.5,3.6,3.5c15.7,15.7,31.3,31.4,47,47c8,7.9,20.4,5.8,25.2-4
	C844.7,372.6,843.3,365.8,837.8,360.3z"/>
<rect x="0" y="0.2" class="st1" width="1000" height="1000"/>
</svg>
