<?xml version="1.0" encoding="utf-8"?>
<!-- Generator: Adobe Illustrator 21.0.2, SVG Export Plug-In . SVG Version: 6.00 Build 0)  -->
<svg version="1.1" id="Слой_1" xmlns="http://www.w3.org/2000/svg" xmlns:xlink="http://www.w3.org/1999/xlink" x="0px" y="0px"
	 viewBox="0 0 1000 1000" style="enable-background:new 0 0 1000 1000;" xml:space="preserve">
<style type="text/css">
	.st0{fill:none;}
	.st1{fill-rule:evenodd;clip-rule:evenodd;}
</style>
<rect x="0.7" y="1.1" class="st0" width="1000" height="1000"/>
<path class="st1" d="M395.4,585.1c-9.5-3.1-15.8-9.3-19.3-18.7c-8.3-22.9-10.8-118.9,5.2-137.8c5.5-6.5,12.6-10.2,21-11.1
	c43.3-4.7,177-4,192.4,1.6c9,3.2,15.4,9.2,18.9,18.2c9.1,23.7,9.4,109.9-1.2,132.8c-2.9,6.2-7.6,10.6-13.6,13.7
	C582.7,592.2,416.6,592.1,395.4,585.1z M464.1,540.2c26-13.5,51.8-26.9,77.9-40.4c-26.2-13.6-51.9-27.1-77.9-40.7
	C464.1,486.2,464.1,513,464.1,540.2z"/>
<path class="st1" d="M716,499.9c0-122-99-221-221-221c-122,0-221,99-221,221c0,122,99,221,221,221C617,720.9,716,621.9,716,499.9
	L716,499.9z M294.1,499.9C294.1,388.9,384.1,299,495,299s200.9,89.9,200.9,200.9S605.9,700.7,495,700.7S294.1,610.8,294.1,499.9
	L294.1,499.9z M294.1,499.9"/>
</svg>
