<?xml version="1.0" encoding="utf-8"?>
<!-- Generator: Adobe Illustrator 21.0.2, SVG Export Plug-In . SVG Version: 6.00 Build 0)  -->
<svg version="1.1" id="Слой_1" xmlns="http://www.w3.org/2000/svg" xmlns:xlink="http://www.w3.org/1999/xlink" x="0px" y="0px"
	 viewBox="0 0 1000 1000" style="enable-background:new 0 0 1000 1000;" xml:space="preserve">
<style type="text/css">
	.st0{fill:#231F20;}
	.st1{opacity:0.61;}
	.st2{fill:#919191;}
	.st3{fill:none;}
</style>
<g>
	<g>
		<path class="st0" d="M285.1,513.4l120.3-204.2l0.3,0.5L503,514l-0.5,0L285.1,513.4z M405.3,310.6L286.2,512.7l215.8,0.7
			L405.3,310.6z"/>
	</g>
	<g>
		<path class="st0" d="M502.5,514.4l-0.2-0.5l-97.4-204.3l0.6,0.1l208.7,23.3l-0.3,0.4L502.5,514.4z M405.9,310.3l96.7,202.8
			L613,333.4L405.9,310.3z"/>
	</g>
	<g>
		<path class="st0" d="M614.1,333.5l-0.5-0.1l-209.1-23.3l0.7-0.5l156-106.1l0.1,0.4L614.1,333.5z M406.3,309.7l206.9,23.1
			l-52.2-128.3L406.3,309.7z"/>
	</g>
	<g>
		<path class="st0" d="M405.3,310.4l-0.2-0.3l-45.2-91.7l0.5,0l201.9-14.7L405.3,310.4z M360.9,218.9l44.6,90.6l154.4-105.1
			L360.9,218.9z"/>
	</g>
	<g>
		<path class="st0" d="M360.4,218.9l-0.1-0.6l137.3-26.2l0.1,0l65.9,12L360.4,218.9z M497.6,192.7l-131.8,25.2l192.8-14L497.6,192.7
			z"/>
	</g>
	<g>
		<path class="st0" d="M716.1,340.1l-102.7-6.7l-0.1-0.2l-53-130.3L716.1,340.1z M613.8,332.8l100.5,6.5L561.9,205.1L613.8,332.8z"
			/>
	</g>
	<g>
		<path class="st0" d="M715.9,341.1L559.6,203.1l104.2,39.3l0.1,0.1L715.9,341.1z M562.6,204.9l151.2,133.4l-50.4-95.4L562.6,204.9z
			"/>
	</g>
	<g>
		<path class="st0" d="M715,340.1l-52.7-99.1l86.8,86.5L715,340.1z M664.8,244.3l50.5,94.9l32.7-12.1L664.8,244.3z"/>
	</g>
	<g>
		<path class="st0" d="M776.2,371.7l-61.8-32l34.3-12.7L776.2,371.7z M716,339.7l58.6,30.3l-26.1-42.3L716,339.7z"/>
	</g>
	<g>
		<path class="st0" d="M730.7,517l-0.6,0l-228.1-3l0.3-0.5l111.4-181l0.3,0.4L730.7,517z M503.1,513.5l226.4,2.8L613.6,333.7
			L503.1,513.5z"/>
	</g>
	<g>
		<path class="st0" d="M596.8,717.6l-0.2-0.5L502,513.4l228.7,3l-0.3,0.5L596.8,717.6z M503,514.1l93.9,202.2L729.5,517L503,514.1z"
			/>
	</g>
	<g>
		<path class="st0" d="M399.6,688.5l-0.3-0.4L285.1,512.8l0.5,0l217.4,0.9l-0.3,0.5L399.6,688.5z M286.2,513.4l113.3,173.9
			l102.4-173L286.2,513.4z"/>
	</g>
	<g>
		<path class="st0" d="M269.4,695.5l0-0.4l16-183l0.5,0.8l114.2,175.3l-0.5,0L269.4,695.5z M285.9,514l-15.8,180.8l129-7.2
			L285.9,514z"/>
	</g>
	<g>
		<path class="st0" d="M446.6,802.6l-178-107.7l1-0.1l130.1-7.3l0.1,0.2L446.6,802.6z M270.7,695.4l174.6,105.6l-46-112.8
			L270.7,695.4z"/>
	</g>
	<g>
		<path class="st0" d="M448.4,802.9l-99.8-31.3l-81.1-78.1L448.4,802.9z M348.9,771.1l94.7,29.7L272,696.9L348.9,771.1z"/>
	</g>
	<g>
		<path class="st0" d="M271,697.3l-38.6-47.7l-45-136.4l0.6-0.2L271,697.3z M233,649.3l35.5,43.8l-78.5-174.4L233,649.3z"/>
	</g>
	<g>
		<path class="st0" d="M497.6,809.4L497.6,809.4l-54.5-7.7l189.3-15.5l0.1,0.6L497.6,809.4z M448.8,801.9l48.7,6.9L625,787.5
			L448.8,801.9z"/>
	</g>
	<g>
		<path class="st0" d="M445.8,802.3l-46.8-114.7l0.5,0.1l198.2,29.2l-0.8,0.5L445.8,802.3z M400.1,688.3l46.1,113.1l149.8-84.3
			L400.1,688.3z"/>
	</g>
	<g>
		<path class="st0" d="M444.6,802.3l1.2-0.7l151.2-85l0.2,0.3l35.8,70.1l-0.5,0L444.6,802.3z M596.7,717.4l-149.4,84L632,786.3
			L596.7,717.4z"/>
	</g>
	<g>
		<path class="st0" d="M632.4,787.1l-0.2-0.4l-35.8-69.6l0.4-0.1l152.9-42.8l-0.9,0.9L632.4,787.1z M597.3,717.5l35.2,68.6
			l114.9-110.6L597.3,717.5z"/>
	</g>
	<g>
		<path class="st0" d="M269.9,696.4l-82.7-183.7H286l0,0.3L269.9,696.4z M188.2,513.4L269.5,694l15.8-180.6H188.2z"/>
	</g>
	<g>
		<path class="st0" d="M242.2,355.5l0.7-0.8L360.5,218l0.2,0.4l45.2,91.7L242.2,355.5z M360.3,219.2L244,354.3l160.9-44.6
			L360.3,219.2z"/>
	</g>
	<g>
		<path class="st0" d="M286.1,513.4h-98.8l0.1-0.4l55.7-159.1L286.1,513.4z M188.2,512.8h97.1L243.1,356L188.2,512.8z"/>
	</g>
	<g>
		<path class="st0" d="M188,513.2l-0.6-0.2l32.7-133.6l0.1-0.1l23.8-25.8L188,513.2z M220.7,379.7l-31.1,127.1l52.7-150.6
			L220.7,379.7z"/>
	</g>
	<g>
		<path class="st0" d="M219.2,381.3l17.3-36.3l123.7-126.6l0.5,0.4L243.3,355.1L219.2,381.3z M237,345.4l-15.4,32.4l21.3-23.1
			L353.6,226L237,345.4z"/>
	</g>
	<g>
		<path class="st0" d="M597.4,717.3l-0.6-0.1l-197.7-29.1l0.2-0.4l103.3-174.5l0.3,0.6L597.4,717.3z M400.1,687.7l196.3,28.9
			l-93.8-201.9L400.1,687.7z"/>
	</g>
	<g>
		<path class="st0" d="M596.1,717.5l0.5-0.7l133.7-200.2l0.1,0.8l18.5,157.7l-0.3,0.1L596.1,717.5z M729.9,518.3L597.6,716.4
			l150.6-41.8L729.9,518.3z"/>
	</g>
	<g>
		<path class="st0" d="M748.4,676.1l-18.6-159.8l82.1,2.2l0.1,0.4L748.4,676.1z M730.5,517l18.3,156.6l62.5-154.4L730.5,517z"/>
	</g>
	<g>
		<path class="st0" d="M730.5,518.7l-0.7-1.1L613,332.8l102.5,6.6l0,0.3L730.5,518.7z M614.2,333.5l115.5,182.7L714.9,340
			L614.2,333.5z"/>
	</g>
	<g>
		<path class="st0" d="M811.7,519.2l-81.9-2.2l-15.1-178.8L811.7,519.2z M730.4,516.3l80.7,2.2l-95.5-177.4L730.4,516.3z"/>
	</g>
	<g>
		<path class="st0" d="M812,519l-0.6,0l-97-180.1l61.2,31.7l0,0.1L812,519z M715.9,340.4l94.8,176.1l-35.7-145.5L715.9,340.4z"/>
	</g>
	<g class="st1">
		<g>
			<polygon class="st2" points="314.6,393.9 314,393.8 360,219.1 360.6,219.3 			"/>
			<polygon class="st2" points="314.5,394.1 314.1,393.6 561.4,203.6 561.8,204.1 			"/>
			
				<rect x="362.6" y="368.3" transform="matrix(0.5667 -0.8239 0.8239 0.5667 -194.7952 484.1071)" class="st2" width="0.6" height="117.9"/>
			<polygon class="st2" points="411.6,460.9 411.3,460.4 537.6,373 538,373.5 			"/>
			<polygon class="st2" points="538.1,373.3 537.5,373.2 561.3,203.8 561.9,203.9 			"/>
			
				<rect x="448.8" y="178.7" transform="matrix(0.6556 -0.7551 0.7551 0.6556 -69.0153 441.1336)" class="st2" width="0.6" height="235.1"/>
			
				<rect x="570.8" y="367" transform="matrix(0.9302 -0.3669 0.3669 0.9302 -128.0682 241.4717)" class="st2" width="0.6" height="181.3"/>
			<polygon class="st2" points="604.2,542.2 411.3,461 411.6,460.4 604.5,541.6 			"/>
			
				<rect x="336.1" y="525.7" transform="matrix(0.1403 -0.9901 0.9901 0.1403 -175.0824 850.3908)" class="st2" width="132" height="0.6"/>
			
				<rect x="390" y="566.3" transform="matrix(0.9739 -0.2269 0.2269 0.9739 -115.5592 127.9059)" class="st2" width="217.2" height="0.6"/>
			<polygon class="st2" points="188,513.4 187.5,513 314.1,393.6 314.5,394.1 			"/>
			
				<rect x="353.3" y="386.3" transform="matrix(0.9292 -0.3696 0.3696 0.9292 -157.0347 165.5701)" class="st2" width="0.6" height="212.6"/>
			<polygon class="st2" points="689.9,406.1 537.8,373.6 537.9,373 690,405.5 			"/>
			<polygon class="st2" points="604.6,542 604.1,541.7 689.7,405.7 690.2,406 			"/>
			
				<rect x="625.5" y="185.2" transform="matrix(0.844 -0.5364 0.5364 0.844 -65.8687 383.249)" class="st2" width="0.6" height="239.3"/>
			
				<rect x="667.3" y="372.4" transform="matrix(0.3593 -0.9332 0.9332 0.3593 102.4148 894.6371)" class="st2" width="70.9" height="0.6"/>
			<polygon class="st2" points="811.3,519.4 689.7,406 690.2,405.6 811.7,518.9 			"/>
			<polygon class="st2" points="604.4,542.2 604.3,541.6 811.5,518.9 811.5,519.5 			"/>
			<polygon class="st2" points="610,647.3 604,541.9 604.6,541.9 610.6,647.3 			"/>
			
				<rect x="679.3" y="590.2" transform="matrix(0.1908 -0.9816 0.9816 0.1908 -98.683 1201.8225)" class="st2" width="0.6" height="141.2"/>
			<polygon class="st2" points="610.5,647.6 610.1,647 811.3,518.9 811.7,519.4 			"/>
			<polygon class="st2" points="632.2,786.3 610,647.3 610.6,647.2 632.8,786.2 			"/>
			
				<rect x="415.1" y="724.5" transform="matrix(0.7273 -0.6863 0.6863 0.7273 -353.42 560.0313)" class="st2" width="226" height="0.6"/>
			
				<rect x="501.3" y="507.1" transform="matrix(0.2491 -0.9685 0.9685 0.2491 -223.1829 950.8048)" class="st2" width="0.6" height="224.5"/>
			
				<rect x="315.3" y="653.6" transform="matrix(0.2112 -0.9774 0.9774 0.2112 -339.9967 886.5805)" class="st2" width="128.1" height="0.6"/>
			<polygon class="st2" points="445.6,802.5 365.5,716.7 366,716.3 446.1,802 			"/>
			
				<rect x="328.3" y="743.7" transform="matrix(0.2975 -0.9547 0.9547 0.2975 -459.4116 863.6418)" class="st2" width="57.6" height="0.6"/>
			<polygon class="st2" points="365.7,716.8 269.9,695.1 270,694.5 365.8,716.2 			"/>
			
				<rect x="360.9" y="681.6" transform="matrix(0.9623 -0.272 0.272 0.9623 -167.062 158.4268)" class="st2" width="254.2" height="0.6"/>
			<polygon class="st2" points="365.5,716.7 262.5,596.4 262.9,596 366,716.3 			"/>
			
				<rect x="262.7" y="593.5" transform="matrix(0.9993 -3.717429e-02 3.717429e-02 0.9993 -21.8476 12.5955)" class="st2" width="130.3" height="0.6"/>
			
				<rect x="184.1" y="494.7" transform="matrix(0.2461 -0.9692 0.9692 0.2461 -262.3189 652.8275)" class="st2" width="208.9" height="0.6"/>
			<polygon class="st2" points="262.5,596.4 187.5,513.4 188,513 262.9,596 			"/>
			<polygon class="st2" points="232.8,649.7 232.3,649.4 262.4,596.1 263,596.4 			"/>
			<polygon class="st2" points="314.1,394.1 236.5,345.2 236.8,344.6 314.5,393.6 			"/>
			<polygon class="st2" points="444.9,293.4 444.3,293.1 497.6,192.1 498.2,192.4 			"/>
			<polygon class="st2" points="538.1,373.5 537.6,373.1 663.1,241.9 663.5,242.3 			"/>
		</g>
		<g>
			<circle class="st2" cx="411.6" cy="460.4" r="3.4"/>
			<circle class="st2" cx="314.1" cy="393.9" r="3.4"/>
			<circle class="st2" cx="392.8" cy="591.1" r="3.4"/>
			<circle class="st2" cx="262.5" cy="596.4" r="3.4"/>
			<circle class="st2" cx="365.8" cy="716.3" r="3.4"/>
			<circle class="st2" cx="610.2" cy="647" r="3.4"/>
			<circle class="st2" cx="604" cy="541.6" r="3.4"/>
			<circle class="st2" cx="538" cy="373.3" r="3.4"/>
			<circle class="st2" cx="689.7" cy="405.9" r="3.4"/>
			<circle class="st2" cx="445.7" cy="293.4" r="3.4"/>
		</g>
	</g>
	<circle class="st0" cx="810.8" cy="519" r="4.2"/>
	<circle class="st0" cx="729.8" cy="516.3" r="5.1"/>
	<circle class="st0" cx="596.1" cy="717.6" r="5.1"/>
	<circle class="st0" cx="748.9" cy="673.5" r="5.1"/>
	<circle class="st0" cx="632.5" cy="787.1" r="3.7"/>
	<circle class="st0" cx="496.9" cy="809.4" r="2.8"/>
	<circle class="st0" cx="445.1" cy="802.3" r="5.1"/>
	<circle class="st0" cx="347.5" cy="771.7" r="3.2"/>
	<circle class="st0" cx="399.1" cy="688.5" r="5.1"/>
	<circle class="st0" cx="269.1" cy="695.5" r="5.1"/>
	<circle class="st0" cx="233.5" cy="650.4" r="3.1"/>
	<circle class="st0" cx="503" cy="513.4" r="5.1"/>
	<circle class="st0" cx="286.1" cy="514" r="5.1"/>
	<circle class="st0" cx="188.1" cy="512.9" r="3"/>
	<circle class="st0" cx="243.6" cy="355.5" r="5.1"/>
	<circle class="st0" cx="405.8" cy="310.4" r="5.1"/>
	<circle class="st0" cx="360.6" cy="219.3" r="5.1"/>
	<circle class="st0" cx="498.6" cy="191.5" r="3.7"/>
	<circle class="st0" cx="561.6" cy="205.1" r="5.1"/>
	<circle class="st0" cx="613.4" cy="332.6" r="5.1"/>
	<circle class="st0" cx="662.3" cy="240.9" r="4.4"/>
	<circle class="st0" cx="714.7" cy="340.1" r="5.1"/>
	<circle class="st0" cx="749.1" cy="327.5" r="3.6"/>
	<circle class="st0" cx="776.2" cy="370.7" r="5.1"/>
	<circle class="st0" cx="236.7" cy="344.1" r="3.5"/>
	<circle class="st0" cx="219.2" cy="380.2" r="3.1"/>
</g>
<rect x="0" y="0" class="st3" width="1000" height="1000"/>
</svg>
