<?xml version="1.0" encoding="utf-8"?>
<!-- Generator: Adobe Illustrator 21.0.2, SVG Export Plug-In . SVG Version: 6.00 Build 0)  -->
<svg version="1.1" id="Слой_1" xmlns="http://www.w3.org/2000/svg" xmlns:xlink="http://www.w3.org/1999/xlink" x="0px" y="0px"
	 viewBox="0 0 1000 1000" style="enable-background:new 0 0 1000 1000;" xml:space="preserve">
<style type="text/css">
	.st0{fill:none;}
	.st1{fill:#231F20;}
	.st2{fill:#919191;}
</style>
<rect x="1.9" y="3.3" class="st0" width="1000" height="1000"/>
<g>
	<g>
		<path class="st1" d="M822.6,501.3L633.6,184.9l0.4-0.1l98.9,25.2l13.7,3.8 M634.6,185.5l186.6,312.6l-75.3-283.8L634.6,185.5z"/>
	</g>
	<path class="st1" d="M546.4,861.8L181.8,276.5l-0.3-0.5l69.3,343.5 M182,277.3l359.9,579.5L251.8,618.7L182,277.3z"/>
	<polygon class="st2" points="319,365.4 318.2,365.2 375.8,146.6 376.6,146.8 	"/>
	
		<rect x="379" y="333.4" transform="matrix(0.5667 -0.8239 0.8239 0.5667 -171.0618 489.0324)" class="st2" width="0.8" height="147.6"/>
	<polygon class="st2" points="440.4,449.3 440,448.6 598.2,339.3 598.6,339.9 	"/>
	
		<rect x="486.9" y="96.1" transform="matrix(0.6556 -0.7551 0.7551 0.6556 -15.7752 451.7293)" class="st2" width="0.8" height="294.2"/>
	
		<rect x="639.6" y="331.7" transform="matrix(0.9302 -0.3669 0.3669 0.9302 -118.6828 265.894)" class="st2" width="0.8" height="226.8"/>
	<polygon class="st2" points="681.5,551 440.1,449.3 440.4,448.6 681.8,550.3 	"/>
	
		<rect x="346" y="530.4" transform="matrix(0.1403 -0.9901 0.9901 0.1403 -157.0544 880.6387)" class="st2" width="165.2" height="0.8"/>
	
		<rect x="367.4" y="355.9" transform="matrix(0.9292 -0.3696 0.3696 0.9292 -154.6747 170.5638)" class="st2" width="0.8" height="266.1"/>
	<polygon class="st2" points="788.7,380.7 598.3,340 598.5,339.2 788.9,379.9 	"/>
	<polygon class="st2" points="682,550.8 681.3,550.4 788.5,380.1 789.1,380.5 	"/>
	<polygon class="st2" points="688.7,682.6 681.2,550.6 682,550.6 689.5,682.5 	"/>
	
		<rect x="552.6" y="507.1" transform="matrix(0.2491 -0.9685 0.9685 0.2491 -211.8831 1021.8141)" class="st2" width="0.8" height="281"/>
	
		<rect x="319.8" y="690.5" transform="matrix(0.2112 -0.9774 0.9774 0.2112 -359.7736 935.9218)" class="st2" width="160.3" height="0.8"/>
	
		<rect x="377" y="725.5" transform="matrix(0.9623 -0.272 0.272 0.9623 -177.207 173.1465)" class="st2" width="318.1" height="0.8"/>
	
		<rect x="254" y="615.2" transform="matrix(0.9993 -3.717428e-02 3.717428e-02 0.9993 -22.6524 12.8976)" class="st2" width="163" height="0.8"/>
	
		<rect x="155.6" y="491.6" transform="matrix(0.2461 -0.9692 0.9692 0.2461 -260.9911 648.4344)" class="st2" width="261.4" height="0.8"/>
	<circle class="st2" cx="440.4" cy="448.6" r="4.2"/>
	<circle class="st2" cx="318.4" cy="365.4" r="4.2"/>
	<circle class="st2" cx="416.9" cy="612.2" r="4.2"/>
	<circle class="st1" cx="252.2" cy="618.9" r="4.2"/>
	<circle class="st2" cx="383.1" cy="768.9" r="4.2"/>
	<circle class="st2" cx="689" cy="682.2" r="4.2"/>
	<circle class="st2" cx="681.2" cy="550.2" r="4.2"/>
	<circle class="st2" cx="598.6" cy="339.6" r="4.2"/>
	<circle class="st2" cx="788.4" cy="380.5" r="4.2"/>
	<circle class="st1" cx="295.7" cy="459.8" r="4.2"/>
	<circle class="st1" cx="637.2" cy="562.1" r="4.2"/>
	<circle class="st1" cx="376.5" cy="144.8" r="4.2"/>
	<circle class="st1" cx="545.6" cy="861.8" r="4.2"/>
	<circle class="st1" cx="727.2" cy="680.6" r="4.2"/>
	<polygon points="295.7,460.5 296,459.8 637.3,561.7 637,562.5 	"/>
	<g>
		<path class="st1" d="M545.6,862.7l0.8-1L638,562.1l0.3,0.5l90.5,117L545.6,862.7z M638.2,563.3l-90.1,295.5L728,679.5L638.2,563.3
			z"/>
	</g>
	<circle class="st1" cx="181.5" cy="276" r="4.2"/>
	<circle class="st1" cx="746.6" cy="214.9" r="4.2"/>
	<circle class="st1" cx="822.2" cy="501.3" r="4.2"/>
	<polygon points="378.9,141.9 182.9,275.3 183.3,276 378.9,142.8 	"/>
	<polygon points="633.3,184.8 379.7,144.6 379.5,145.4 632.6,185.5 	"/>
	<circle class="st1" cx="633.6" cy="186.5" r="4.2"/>
	<polygon points="822.7,499.8 725.5,683.2 726.2,683.6 823.6,499.8 	"/>
	<polygon points="824.3,499.3 637.2,562.4 637.4,563.2 824.3,500.1 	"/>
	<circle class="st1" cx="598.3" cy="273.6" r="4.2"/>
	<polygon points="598.3,273.6 376.7,143.8 376.3,144.5 597.5,274 	"/>
	<polygon points="596.3,273.1 294.8,459.3 295.2,460 596.3,274.1 	"/>
	<polygon points="632.5,186.5 598.7,275 599.2,275.8 633.3,186.5 	"/>
	<polygon points="636.9,562.1 599.5,271.9 598.7,272 636.1,562.1 	"/>
</g>
</svg>
