<?xml version="1.0" encoding="utf-8"?>
<!-- Generator: Adobe Illustrator 21.0.2, SVG Export Plug-In . SVG Version: 6.00 Build 0)  -->
<svg version="1.1" id="Слой_1" xmlns="http://www.w3.org/2000/svg" xmlns:xlink="http://www.w3.org/1999/xlink" x="0px" y="0px"
	 viewBox="0 0 1000 1000" style="enable-background:new 0 0 1000 1000;" xml:space="preserve">
<style type="text/css">
	.st0{fill:none;}
	.st1{fill:none;stroke:#231F20;stroke-width:0.25;stroke-miterlimit:10;}
	.st2{fill:none;stroke:#231F20;stroke-miterlimit:10;}
	.st3{fill:none;stroke:#686466;stroke-width:0.5;stroke-miterlimit:10;}
	.st4{fill:#919191;}
	.st5{fill:#020202;}
	.st6{fill:#A5A2A5;}
</style>
<rect x="2" y="3.3" class="st0" width="1000" height="1000"/>
<g>
	
		<rect x="597.9" y="529.3" transform="matrix(0.7071 -0.7071 0.7071 0.7071 -218.6638 630.3015)" class="st1" width="107.2" height="99.6"/>
	
		<rect x="304.9" y="525.9" transform="matrix(0.7071 -0.7071 0.7071 0.7071 -305.3767 420.3293)" class="st1" width="99.6" height="105.8"/>
	
		<rect x="299.2" y="380.4" transform="matrix(0.7071 -0.7071 0.7071 0.7071 -202.2745 375.7965)" class="st1" width="106.6" height="103.4"/>
	
		<rect x="453.5" y="677.5" transform="matrix(0.7071 -0.7071 0.7071 0.7071 -366.8888 568.9005)" class="st1" width="99.6" height="99.6"/>
	
		<rect x="601" y="377.8" transform="matrix(0.7071 -0.7071 0.7071 0.7071 -113.8188 587.8337)" class="st1" width="103.4" height="107.1"/>
	
		<rect x="524.7" y="452.2" transform="matrix(0.7071 -0.7071 0.7071 0.7071 -188.2885 556.9852)" class="st1" width="107.1" height="107.1"/>
	
		<rect x="451" y="230.5" transform="matrix(0.7071 -0.7071 0.7071 0.7071 -52.3025 438.4427)" class="st1" width="104.3" height="103.7"/>
	
		<rect x="449.4" y="376.5" transform="matrix(0.7071 -0.7071 0.7071 0.7071 -156.7548 481.5518)" class="st1" width="107.1" height="107.1"/>
	
		<rect x="373.6" y="452.2" transform="matrix(0.7071 -0.7071 0.7071 0.7071 -232.536 450.1601)" class="st1" width="107.1" height="107.1"/>
	
		<rect x="237.6" y="239.3" transform="matrix(0.7071 -0.7071 0.7071 0.7071 -209.2692 502.8678)" class="st2" width="529.5" height="529.5"/>
	
		<rect x="255.5" y="255.5" transform="matrix(0.7071 -0.7071 0.7071 0.7071 -208.4792 503.2973)" class="st3" width="495.7" height="495.7"/>
	
		<rect x="270.1" y="270.1" transform="matrix(0.7071 -0.7071 0.7071 0.7071 -208.4792 503.2973)" class="st3" width="466.5" height="466.5"/>
	
		<rect x="295.1" y="295.1" transform="matrix(0.7071 -0.7071 0.7071 0.7071 -208.4792 503.2973)" class="st1" width="416.5" height="416.5"/>
	
		<rect x="282" y="282" transform="matrix(0.7071 -0.7071 0.7071 0.7071 -208.4792 503.2973)" class="st1" width="442.6" height="442.6"/>
	
		<rect x="250.4" y="532.2" transform="matrix(0.7071 -0.7071 0.7071 0.7071 -331.0511 398.3745)" class="st2" width="129.9" height="133.2"/>
	
		<rect x="435.9" y="533.3" transform="matrix(0.7071 -0.7071 0.7071 0.7071 -277.0257 530.9342)" class="st2" width="133.1" height="133.1"/>
	
		<rect x="435.9" y="156.5" transform="matrix(0.7071 -0.7071 0.7071 0.7071 -10.5341 420.5496)" class="st2" width="133.1" height="133.1"/>
	
		<rect x="437.9" y="722.8" transform="matrix(0.7071 -0.7071 0.7071 0.7071 -409.5421 585.8243)" class="st2" width="128.9" height="128.9"/>
	
		<rect x="623.1" y="534.1" transform="matrix(0.7071 -0.7071 0.7071 0.7071 -221.5107 663.0203)" class="st2" width="133.1" height="129.6"/>
	<circle class="st4" cx="153.1" cy="504.3" r="4.6"/>
	<circle class="st4" cx="172.4" cy="504.3" r="4.6"/>
	<circle class="st4" cx="191.9" cy="504.3" r="4.6"/>
	<circle class="st4" cx="211.4" cy="504.3" r="4.6"/>
	<circle class="st5" cx="128.3" cy="504.3" r="4.6"/>
	<circle class="st5" cx="222.9" cy="597.2" r="4.6"/>
	<circle class="st5" cx="313.8" cy="504.3" r="4.6"/>
	<circle class="st5" cx="315.4" cy="692.1" r="4.6"/>
	<circle class="st5" cx="689.6" cy="504.6" r="4.6"/>
	<circle class="st5" cx="502.9" cy="874.8" r="4.6"/>
	<circle class="st5" cx="875.7" cy="504.6" r="4.6"/>
	<circle class="st5" cx="596.5" cy="599.9" r="4.6"/>
	<circle class="st5" cx="408.3" cy="599.9" r="4.6"/>
	<circle class="st5" cx="689.6" cy="693.1" r="4.6"/>
	<circle class="st5" cx="502.9" cy="131.8" r="4.6"/>
	<circle class="st5" cx="594.9" cy="411.7" r="4.6"/>
	<circle class="st5" cx="408.3" cy="411.7" r="4.6"/>
	<circle class="st5" cx="690.8" cy="319.2" r="4.6"/>
	<circle class="st5" cx="784.6" cy="411.7" r="4.6"/>
	<circle class="st5" cx="780" cy="597.2" r="4.6"/>
	<circle class="st5" cx="408.3" cy="223" r="4.6"/>
	<circle class="st5" cx="596.5" cy="223" r="4.6"/>
	<circle class="st4" cx="502.8" cy="853.7" r="4.6"/>
	<circle class="st4" cx="502.8" cy="834.4" r="4.6"/>
	<circle class="st4" cx="502.8" cy="814.9" r="4.6"/>
	<circle class="st4" cx="502.8" cy="795.4" r="4.6"/>
	<circle class="st4" cx="795.6" cy="504.6" r="4.6"/>
	<circle class="st4" cx="814.9" cy="504.6" r="4.6"/>
	<circle class="st4" cx="834.3" cy="504.3" r="4.6"/>
	<circle class="st4" cx="853.9" cy="504.6" r="4.6"/>
	<circle class="st4" cx="502.9" cy="212.6" r="4.6"/>
	<circle class="st4" cx="502.9" cy="193.3" r="4.6"/>
	<circle class="st4" cx="502.9" cy="173.8" r="4.6"/>
	<circle class="st4" cx="502.9" cy="154.3" r="4.6"/>
	<circle class="st5" cx="313.8" cy="316.4" r="4.6"/>
	<circle class="st5" cx="220" cy="411.7" r="4.6"/>
	<circle class="st5" cx="594.9" cy="788" r="4.6"/>
	<circle class="st5" cx="412.9" cy="788" r="4.6"/>
	<circle class="st4" cx="326.2" cy="330.4" r="4.6"/>
	<circle class="st4" cx="336.5" cy="341.7" r="4.6"/>
	<circle class="st4" cx="345.6" cy="350" r="4.6"/>
	<circle class="st4" cx="352.3" cy="506.3" r="4.6"/>
	<circle class="st4" cx="653" cy="506.3" r="4.6"/>
	<circle class="st4" cx="429.2" cy="282.4" r="4.6"/>
	<circle class="st5" cx="502.1" cy="504.3" r="4.6"/>
	<circle class="st5" cx="502.8" cy="696.7" r="4.6"/>
	<circle class="st5" cx="502.1" cy="319.2" r="4.6"/>
	<circle class="st4" cx="502.1" cy="354.3" r="4.6"/>
	<circle class="st4" cx="427.1" cy="430" r="4.6"/>
	<circle class="st4" cx="576.6" cy="430" r="4.6"/>
	
		<rect x="435.9" y="345.2" transform="matrix(0.7071 -0.7071 0.7071 0.7071 -143.9705 475.8209)" class="st2" width="133.1" height="133.1"/>
	<circle class="st4" cx="576.6" cy="282.4" r="4.6"/>
	
		<rect x="247.7" y="344.6" transform="matrix(0.7071 -0.7071 0.7071 0.7071 -198.7023 342.6082)" class="st2" width="133.1" height="133.1"/>
	
		<rect x="448.5" y="528.4" transform="matrix(0.7071 -0.7071 0.7071 0.7071 -264.412 525.4517)" class="st1" width="107.1" height="107.1"/>
	<circle class="st4" cx="502.8" cy="656.9" r="4.6"/>
	<circle class="st6" cx="726.4" cy="433" r="4.6"/>
	<circle class="st6" cx="742" cy="428.4" r="4.6"/>
	<circle class="st6" cx="755.8" cy="425" r="4.6"/>
	<circle class="st6" cx="771.6" cy="422.2" r="4.6"/>
	
		<rect x="624.1" y="345" transform="matrix(0.7071 -0.7071 0.7071 0.7071 -88.7783 609.0664)" class="st2" width="133.4" height="133.4"/>
	<circle class="st6" cx="237.6" cy="419.7" r="4.6"/>
	<circle class="st6" cx="253.1" cy="423" r="4.6"/>
	<circle class="st6" cx="266.2" cy="426.6" r="4.6"/>
	<circle class="st6" cx="278.8" cy="431.2" r="4.6"/>
	<circle class="st6" cx="573.6" cy="727.3" r="4.6"/>
	<circle class="st6" cx="584.2" cy="738.1" r="4.6"/>
	<circle class="st6" cx="593.5" cy="747.3" r="4.6"/>
	<circle class="st6" cx="602.7" cy="756.4" r="4.6"/>
	<circle class="st4" cx="281.8" cy="577.2" r="4.6"/>
	<circle class="st6" cx="432.8" cy="725.7" r="4.6"/>
	<circle class="st6" cx="422.5" cy="735.4" r="4.6"/>
	<circle class="st6" cx="411.5" cy="744.3" r="4.6"/>
	<circle class="st6" cx="400.7" cy="753.5" r="4.6"/>
	<circle class="st4" cx="724.8" cy="577.2" r="4.6"/>
	<circle class="st4" cx="420.9" cy="271" r="4.6"/>
	<circle class="st4" cx="411.3" cy="261.3" r="4.6"/>
	<circle class="st4" cx="587.1" cy="272.4" r="4.6"/>
	<circle class="st4" cx="598.1" cy="263.2" r="4.6"/>
	<circle class="st4" cx="607.2" cy="253.5" r="4.6"/>
	<circle class="st4" cx="402.4" cy="251.9" r="4.6"/>
</g>
</svg>
