<?xml version="1.0" encoding="utf-8"?>
<!-- Generator: Adobe Illustrator 21.0.2, SVG Export Plug-In . SVG Version: 6.00 Build 0)  -->
<svg version="1.1" id="Слой_1" xmlns="http://www.w3.org/2000/svg" xmlns:xlink="http://www.w3.org/1999/xlink" x="0px" y="0px"
	 viewBox="0 0 1000 1000" style="enable-background:new 0 0 1000 1000;" xml:space="preserve">
<style type="text/css">
	.st0{fill:#FFFFFF;}
	.st1{fill:none;}
</style>
<g>
	<path class="st0" d="M399,491.8H219.8c1.7-76.6,19.3-135.7,53-177.1c33.6-41.4,86.6-69.7,159-84.9V76.1
		C297.3,91.2,197,136.7,131,212.4c-66,75.8-99,182.7-99,320.8v394.3h367V491.8z"/>
	<path class="st0" d="M935.2,491.8H755.9c1.7-76.6,19.3-135.7,53-177.1c33.6-41.4,86.6-69.7,159-84.9V76.1
		c-134.6,15.1-234.8,60.6-300.8,136.3c-66,75.8-99,182.7-99,320.8v394.3h367V491.8z"/>
</g>
<rect x="0" y="1.8" class="st1" width="1000" height="1000"/>
</svg>
